<svg width="100" height="100" fill="none" xmlns="http://www.w3.org/2000/svg" id="svg1542893505_2827"><path fill-rule="evenodd" clip-rule="evenodd" d="M12.813 38.926v-.02c0-1.703 1.109-3.035 2.417-3.996 1.344-.984 3.184-1.804 5.317-2.469 4.289-1.328 10.117-2.129 16.484-2.129 6.367 0 12.195.801 16.484 2.13 2.133.663 3.973 1.484 5.316 2.468 1.309.961 2.418 2.293 2.418 3.996v9.57h7.035a1.56 1.56 0 0 0 1.332-.75l3.06-5.011a4.684 4.684 0 0 1 4-2.246h3.89a7.032 7.032 0 1 1 0 3.125h-3.89a1.56 1.56 0 0 0-1.333.75l-3.059 5.011a4.684 4.684 0 0 1-4 2.246H61.25V60h22.44a7.032 7.032 0 1 1 0 3.125H61.25v8.593h7.034c1.633 0 3.153.852 4 2.246l3.06 5.012c.28.465.788.75 1.331.75h3.89a7.032 7.032 0 1 1 0 3.125h-3.89a4.684 4.684 0 0 1-4-2.246l-3.058-5.012a1.56 1.56 0 0 0-1.333-.75H61.25v6.25c0 1.703-1.11 3.035-2.418 3.996-1.344.985-3.183 1.805-5.316 2.47-4.29 1.327-10.117 2.128-16.484 2.128-6.367 0-12.195-.8-16.484-2.129-2.133-.664-3.973-1.484-5.317-2.469-1.308-.96-2.418-2.293-2.418-3.996V38.926Zm3.124-.02c0-.238.16-.754 1.141-1.476.953-.7 2.43-1.395 4.395-2.004 3.914-1.215 9.414-1.989 15.559-1.989s11.645.774 15.559 1.989c1.964.61 3.441 1.304 4.394 2.004.98.722 1.14 1.238 1.14 1.476 0 .239-.16.754-1.14 1.477-.953.7-2.43 1.394-4.394 2.004-3.915 1.215-9.415 1.988-15.56 1.988-6.144 0-11.644-.773-15.558-1.988-1.965-.61-3.442-1.305-4.395-2.004-.973-.715-1.137-1.23-1.14-1.469v-.008Zm42.189 4.473v8.809c0 .238-.16.753-1.141 1.476-.953.7-2.43 1.395-4.395 2.004-3.914 1.215-9.414 1.988-15.559 1.988-6.144 0-11.645-.773-15.559-1.988-1.964-.61-3.441-1.305-4.394-2.004-.973-.715-1.137-1.23-1.14-1.469V43.38c1.253.777 2.827 1.438 4.609 1.992 4.289 1.328 10.117 2.13 16.484 2.13 6.367 0 12.195-.802 16.484-2.13 1.78-.555 3.355-1.215 4.61-1.992ZM15.938 66.25v-9.59c1.253.778 2.828 1.438 4.609 1.992 4.289 1.328 10.117 2.13 16.484 2.13 6.367 0 12.195-.801 16.484-2.13 1.781-.554 3.355-1.214 4.61-1.992v9.59c0 .238-.16.754-1.141 1.477-.953.699-2.43 1.394-4.395 2.004-3.914 1.214-9.414 1.988-15.559 1.988s-11.645-.774-15.559-1.988c-1.965-.61-3.441-1.305-4.394-2.004-.98-.723-1.14-1.239-1.14-1.477Zm42.188 4.473c-1.254.777-2.829 1.437-4.61 1.992-4.289 1.328-10.117 2.129-16.484 2.129-6.367 0-12.195-.801-16.484-2.13-1.781-.554-3.355-1.214-4.61-1.991v10.37c0 .239.16.755 1.141 1.477.953.7 2.43 1.395 4.395 2.004 3.914 1.215 9.414 1.989 15.559 1.989s11.645-.774 15.559-1.989c1.965-.61 3.441-1.305 4.394-2.004.98-.722 1.14-1.238 1.14-1.476V70.723Zm29.297-24.785a3.908 3.908 0 0 1-3.907-3.907 3.908 3.908 0 0 1 3.906-3.906 3.908 3.908 0 0 1 3.907 3.907 3.908 3.908 0 0 1-3.906 3.906Zm-.782 15.625a3.908 3.908 0 0 0 3.906 3.906 3.908 3.908 0 0 0 3.907-3.906 3.908 3.908 0 0 0-3.907-3.907 3.908 3.908 0 0 0-3.906 3.907ZM83.516 81.29a3.908 3.908 0 0 1 3.906-3.907 3.908 3.908 0 0 1 3.907 3.907 3.908 3.908 0 0 1-3.907 3.906 3.908 3.908 0 0 1-3.906-3.906Z" fill="#000"></path></svg>