<svg width="100" height="100" fill="none" xmlns="http://www.w3.org/2000/svg" id="svg659619386_1219"><path d="M81.001 19.5h-7v-7c0-2.2-1.8-4-4-4H18.999c-2.2 0-4 1.8-4 4v64c0 2.2 1.8 4 4 4h7v7c0 2.2 1.8 4 4 4h51c2.2 0 4-1.8 4-4l.002-64c0-2.2-1.8-4-4-4Zm-62.002 58c-.542 0-1-.458-1-1v-64c0-.542.458-1 1-1h51.002c.542 0 1 .458 1 1v7H29.999c-2.2 0-4 1.8-4 4v54h-7Zm63 10c0 .542-.458 1-1 1h-51c-.542 0-1-.458-1-1v-64c0-.542.458-1 1-1h51.002c.542 0 1 .458 1 1l-.002 64Z" fill="#000"></path><path d="M41.001 46h29.998a1.5 1.5 0 0 0 0-3H41.001a1.5 1.5 0 1 0 0 3Zm0-10h29.998a1.5 1.5 0 0 0 0-3H41.001a1.5 1.5 0 1 0 0 3Zm0 20h29.998a1.5 1.5 0 0 0 0-3H41.001a1.5 1.5 0 1 0 0 3Zm20.998 8a1.5 1.5 0 0 0-1.5 1.5v12a1.5 1.5 0 0 0 3 0v-12a1.5 1.5 0 0 0-1.5-1.5Zm10 3a1.5 1.5 0 0 0-1.5 1.5v9a1.5 1.5 0 0 0 3 0v-9a1.5 1.5 0 0 0-1.5-1.5Zm-5 3a1.5 1.5 0 0 0-1.5 1.5v6a1.5 1.5 0 0 0 3 0v-6a1.5 1.5 0 0 0-1.5-1.5Zm-20.5-8a9 9 0 1 0 0 18 9 9 0 0 0 0-18Zm-6 9a5.974 5.974 0 0 1 1.758-4.243A5.974 5.974 0 0 1 46.499 65a5.974 5.974 0 0 1 4.242 1.757 5.976 5.976 0 0 1 1.756 4.196l-5.635-1.409a1.498 1.498 0 0 0-1.819 1.819l1.408 5.634a5.97 5.97 0 0 1-4.195-1.755A5.973 5.973 0 0 1 40.499 71Zm8.863 5.274-.803-3.212 3.213.803a6.035 6.035 0 0 1-2.41 2.409Z" fill="#000"></path></svg>