
    <svg width="230" height="47"fill="none" xmlns="http://www.w3.org/2000/svg" id="svg952369449_9840"><path d="M36.696 460.721h-.003c-.839 30.084-1.706 103.725-1.929 174.209-.224 70.884.213 137.593 1.892 154.188 1.086 10.674 2.68 23.162 6.381 34.258 3.733 11.193 9.148 19.568 16.897 23.792-.005-.003-.005-.003.001.001.033.015.224.107.639.261.472.175 1.108.384 1.93.624 1.648.482 3.813 1.018 6.485 1.6 5.337 1.161 12.328 2.423 20.533 3.742 16.39 2.634 37.235 5.429 58.572 8.043 42.722 5.232 86.942 9.676 100.69 10.603h.011c64.364 4.42 129.055 4.856 194.067 5.294l3.381.023c65.422.442 131.159.956 196.659 5.668 2.087-1.109 4.184-4.002 5.249-12.618 1.061-8.583.693-19.711.24-33.408-.073-2.201-.148-4.468-.219-6.802-1.005-32.715-1.184-75.677 19.776-114.718 28.641-53.367 90.206-70.263 145.735-72.103 28.078-.931 55.425 1.933 77.817 6.323 22.028 4.318 40.355 10.323 49.717 16.283 25.594 16.281 44.394 49.549 55.032 84.117 9.801 31.858 13.311 66.865 7.761 94.294 5.18 2.244 8.79 3.257 11.24 3.511 1.55.161 2.22-.033 2.36-.086l.02-.004c.02-.007.05-.012.15-.15.57-.747 1.49-2.961 1.95-8.377.44-5.096.39-11.449.32-19.369v-.217c-.26-31.545-.6-81.307 37.35-127.849v-.002c21.84-26.754 56.48-39.647 91.8-45.208 35.52-5.592 73.18-4.008 102.84-.531h.01c52.01 6.122 99.5 41.569 116.43 93.005 10.89 33.004 9.47 68.342 8.35 95.039l-.02.455c-.56 13.53-1.02 24.305-.15 32.228.44 3.972 1.14 6.481 1.89 7.959.2.408.38.691.54.889 369.91-1.183 739.79-2.398 1109.63-3.647.18-2.249.21-5.315.1-9.329-.1-3.465-.31-7.709-.54-12.475-.4-8.115-.87-17.74-.99-27.599-.37-32.188 2.71-73.852 23.55-110.975v-.004c20.72-36.863 56.54-55.161 94.98-63.282 38.36-8.105 80.33-6.328 115.28-2.265l.02.002c43.82 5.163 79.02 26.773 100.94 65.524 20.25 35.799 23.41 70.488 23.62 96.528.05 5.935-.05 11.459-.14 16.378l-.03 1.349c-.1 5.333-.16 9.775-.01 13.492.12 2.986.38 5.074.7 6.493 41.93-2.073 138.25-.662 230.22.685l9.73.143c49.28.72 96.82 1.389 133.75 1.469 18.47.041 34.21-.066 46.15-.385 5.97-.159 10.93-.37 14.76-.635 4.01-.277 6.27-.583 7.18-.803 12.48-3.01 23.41-15.875 31.95-38.838 8.34-22.437 13.38-51.907 15.87-83.082 2.48-31.071 2.39-63.339.71-91.111-1.69-27.932-4.96-50.688-8.59-63.027-16.49-54.473-28.01-110.856-39.46-166.93-2.5-12.22-4.99-24.425-7.53-36.593-12.53-59.994-26.26-119.266-47.24-176.057 4.32 20.808 8.65 41.632 12.97 62.473l.18.877v9.841l-8.84-.13c-45.05-.662-90.07-1.291-135.06-1.886l-8.79-.117.19-8.789 1.89-87.072.18-8.529h124.06l-.54-1.298 12.26-.674c58.76-3.234 95.99 7.331 119.26 26.417 23.41 19.207 30.96 45.62 33.63 69.802 1.28 11.482 1.48 22.801 1.66 32.798l.03 1.535c.2 10.661.44 19.315 1.7 25.994 1.29 6.831 3.23 9.2 4.79 10.097 1.67.959 5.91 1.967 15.97-1.363.1-.07.81-.567 1.85-2.432 1.3-2.337 2.58-5.898 3.65-10.725 2.12-9.603 3.03-22.671 2.43-37.096-1.22-29.212-8.47-61.099-21.36-78.984-22.4-31.031-65.74-48.369-106.74-58.319-20.21-4.908-39.3-7.892-54.04-9.92-3.69-.507-7.09-.954-10.19-1.358l-.95-.123c-2.71-.353-5.18-.676-7.35-.974-2.39-.331-4.53-.648-6.27-.965-1.46-.264-3.5-.669-5.16-1.384-3.34-1.437-4.99-4.22-5.54-5.161l-.02-.031c-.33-.55-.65-1.155-.9-1.617l-.07-.138a58.12 58.12 0 0 0-.87-1.569c-1.14-1.953-3.08-4.827-7.31-8.482-8.72-7.525-27.46-18.628-69.41-30.788-66.46-19.226-146.95-27.726-228.91-32.67-37.04-2.235-74.68-3.752-111.35-5.228-43.58-1.755-85.76-3.454-123.87-6.237H970.533l-2.372-1.866c-7.895-6.212-21.486-8.854-33.652-9.253H136.202c-28.288 5.595-44.904 17.643-55.795 34.105-11.346 17.151-17.042 39.894-21.59 67.885l-.001.007c-8.92 54.616-20.13 273.12-22.12 343.354Zm3058.884-3.133-1.23-2.061V297.615l2.55-2.554 2.78-2.78 2.78-2.78 2.55-2.554h121.95l2.56 2.554 4.59 4.592 4.63 4.642 1.65 1.65.61 2.253c15.12 56.347 29.76 99.765 40.78 132.474 1.5 4.458 2.94 8.717 4.3 12.783 5.64 16.845 10.1 30.702 12.62 41.561 1.26 5.444 2.1 10.442 2.31 14.886.2 4.377-.19 8.867-1.96 12.887-1.91 4.337-5.19 7.572-9.58 9.426-4.07 1.72-8.62 2.062-13.11 1.795-8.89-.529-20.6-3.679-35.01-8.447-14.72-4.871-33.5-11.875-56.67-20.517-22.19-8.278-48.42-18.059-78.97-28.91l-2.92-1.037-1.61-2.646c-1.87-3.069-3.73-6.171-5.6-9.305Zm-530-90.207-.01-.001c-1.61-.167-3.41-.115-5.75.028l-1.04.066c-1.97.129-4.4.287-6.73.223-2.86-.079-6.25-.49-9.65-1.988a20.465 20.465 0 0 1-5.79-3.841h-4.86V97.658l2.56-2.553 2.77-2.78 2.78-2.78 2.56-2.554h515.31l2.57 4.025 13 20.353 1.74 2.719-.45 3.195c-1.49 10.47-1.38 34.048-.28 64.762 1.08 30.364 3.09 66.791 5.16 102.353.55 9.426 1.1 18.794 1.65 27.97 1.5 25.392 2.91 49.314 3.9 68.934.66 13.352 1.14 24.805 1.3 33.428.09 4.303.09 7.996 0 10.912-.08 2.503-.24 5.474-.88 7.662-.94 3.31-3.07 6.009-4.86 7.88-1.96 2.04-4.32 3.923-6.76 5.519-4.55 2.965-11.03 5.993-17.22 5.909v-.001h-.01c-2.13-.033-4.73-.72-6.67-1.273-2.34-.662-5.24-1.596-8.58-2.733-6.7-2.279-15.53-5.503-25.77-9.341-13.01-4.878-28.48-10.809-44.99-17.14-9.45-3.626-19.25-7.384-29.13-11.15-27.18-10.366-55.03-20.823-78.34-28.949-23.54-8.201-41.38-13.629-49.53-14.631-33.5-2.136-77.58-.836-121.46.458l-5.68.167c-45.43 1.334-90.33 2.513-120.86-.638Zm-74.65-.199-.71.245h-461.6l-.12-8.597c-1.19-85.844-2.41-171.656-3.67-257.434l-.05-3.684 2.6-2.607 2.78-2.78 2.78-2.78 2.55-2.554h466.12l2.55 2.554 2.78 2.78 2.78 2.78 2.55 2.553v257.955l-1.29 2.099c-1.85 3.022-4.13 5.423-6.89 7.083-2.77 1.671-5.52 2.283-7.83 2.468-1.81.145-3.61.025-4.56-.039l-.37-.024c-.16-.009-.29-.014-.4-.018Zm-968.58-4.644-4.45-2.499V90.731l8.66-.067c154.81-1.191 309.63-2.415 464.44-3.673l3.65-.03 2.59 2.584 2.78 2.78 2.78 2.78 2.55 2.553v258.075l-1.51 2.218c-3.63 5.334-7.96 8.13-12.52 9.036a18.2 18.2 0 0 1-4.03.327l-.03.014h-454.38l-1.15-.318c-1.24-.344-2.53-.935-3.29-1.295a83.61 83.61 0 0 1-2.81-1.402c-.88-.462-1.69-.902-2.28-1.225-.3-.162-.54-.297-.71-.392l-.21-.113-.05-.031-.02-.01v-.002l-.01-.001 4.27-7.602-4.27 7.601Zm-504.24-2.696-7.13-1.053v-18.844l2.78-122.217 2.78-122.218.19-8.52h471.03l2.55 2.555 2.78 2.78 2.78 2.78 2.6 2.604-.05 3.68c-1.19 85.849-2.41 171.665-3.67 257.448l-.13 8.59h-469.89l-2.07-1.243a8.898 8.898 0 0 1-2.38-2.084c-.4-.502-.67-.952-.83-1.222-.1-.181-.19-.355-.27-.514a8.59 8.59 0 0 1-.3-.675c-.12-.275-.29-.742-.36-.928l-.03-.073c-.16-.401-.27-.658-.38-.846Zm-495.577 7.569-3.919.239-2.775-2.777-2.779-2.78-.225-.225h-5.205V97.658l2.552-2.553 2.778-2.78 2.779-2.78 2.554-2.554h467.828l2.431 4.737.024.046c1.868 3.64 3.809 7.42 5.657 11.324l.839 1.771v255.112h-7.113c-.133.146-.282.316-.448.513-.3.356-.593.722-.96 1.181-.331.412-.769.959-1.216 1.472-.421.483-1.085 1.214-1.917 1.896-.682.56-2.345 1.83-4.791 2.254-6.096 1.095-16.348 1.733-29.223 2.114-13.104.387-29.498.517-48.171.474-37.352-.087-84.086-.871-132.357-1.714l-9.402-.165c-93.984-1.646-191.51-3.355-236.941-.595ZM93.301 107.082l-.003-.127v-6.664l1.698-2.306a736.798 736.798 0 0 1 5.624-7.536l2.616-3.458h383.059l.066 8.65c.662 85.849 1.29 171.665 1.886 257.448l.019 2.716-1.527 2.245c-3.625 5.334-7.963 8.13-12.519 9.036a18.11 18.11 0 0 1-4.028.327l-.034.014h-369.16l-.253-8.457c-2.514-83.995-4.996-167.958-7.444-251.888Z" fill="#1E1E1E" stroke="#fff" stroke-width="17.436"></path><path d="m2681.2 700.683-.01-.001c-43.26-4.095-75.67 9.059-97.87 30.592-22.39 21.706-35.01 52.534-37.26 84.551-2.25 32.024 5.93 64.557 24.28 89.482 18.21 24.724 46.7 42.385 86.28 44.667 42.09 2.423 73.61-11.21 95.21-32.682 21.75-21.627 33.97-51.758 36.15-82.989 4.37-62.665-31.41-126.535-106.78-133.62Zm-1468 0-.01-.001c-43.26-4.095-75.67 9.059-97.87 30.592-22.39 21.706-35.01 52.534-37.26 84.551-2.25 32.024 5.93 64.557 24.28 89.482 18.21 24.724 46.7 42.385 86.28 44.667 42.09 2.423 73.61-11.21 95.21-32.682 21.75-21.627 33.97-51.758 36.15-82.989 4.37-62.665-31.41-126.535-106.78-133.62Zm-373.892.104-4.514-.4c-27.716-1.165-58.026 8.906-82.865 26.767-26.213 18.85-45.325 45.626-49.294 75.315v.001c-14.829 110.843 101.987 184.436 191.983 126.729 47-30.135 61.708-84.45 50.041-133.215-11.662-48.738-49.256-90.229-105.351-95.197Z" fill="#1E1E1E" stroke="#fff" stroke-width="17.436"></path><g filter="url(#svg952369449_9840_a)"><path d="M4658.77 610.19H3315.63l25.02 79.069 973.11 268.818 345.01-347.887Z" fill="url(#svg952369449_9840_b)" fill-opacity=".2"></path></g><g filter="url(#svg952369449_9840_c)"><ellipse cx="3320.13" cy="648.905" rx="12.151" ry="47.891" fill="#08F8FE"></ellipse></g><g filter="url(#svg952369449_9840_d)"><ellipse cx="29.689" cy="466.237" rx="12.151" ry="47.891" fill="#EB0000"></ellipse></g><g filter="url(#svg952369449_9840_e)"><ellipse cx="29.689" cy="605.726" rx="12.151" ry="47.891" fill="#EB0000"></ellipse></g><defs><filter id="svg952369449_9840_a" x="3245.89" y="540.446" width="1482.62" height="487.375" filterUnits="userSpaceOnUse" color-interpolation-filters="sRGB"><feFlood flood-opacity="0" result="BackgroundImageFix"></feFlood><feBlend in="SourceGraphic" in2="BackgroundImageFix" result="shape"></feBlend><feGaussianBlur stdDeviation="34.872" result="effect1_foregroundBlur_127_7043"></feGaussianBlur></filter><filter id="svg952369449_9840_c" x="3290.54" y="583.578" width="59.174" height="130.655" filterUnits="userSpaceOnUse" color-interpolation-filters="sRGB"><feFlood flood-opacity="0" result="BackgroundImageFix"></feFlood><feBlend in="SourceGraphic" in2="BackgroundImageFix" result="shape"></feBlend><feGaussianBlur stdDeviation="8.718" result="effect1_foregroundBlur_127_7043"></feGaussianBlur></filter><filter id="svg952369449_9840_d" x=".102" y="400.909" width="59.174" height="130.655" filterUnits="userSpaceOnUse" color-interpolation-filters="sRGB"><feFlood flood-opacity="0" result="BackgroundImageFix"></feFlood><feBlend in="SourceGraphic" in2="BackgroundImageFix" result="shape"></feBlend><feGaussianBlur stdDeviation="8.718" result="effect1_foregroundBlur_127_7043"></feGaussianBlur></filter><filter id="svg952369449_9840_e" x=".102" y="540.399" width="59.174" height="130.655" filterUnits="userSpaceOnUse" color-interpolation-filters="sRGB"><feFlood flood-opacity="0" result="BackgroundImageFix"></feFlood><feBlend in="SourceGraphic" in2="BackgroundImageFix" result="shape"></feBlend><feGaussianBlur stdDeviation="8.718" result="effect1_foregroundBlur_127_7043"></feGaussianBlur></filter><linearGradient id="svg952369449_9840_b" x1="3315.63" y1="755.602" x2="4385.78" y2="902.075" gradientUnits="userSpaceOnUse"><stop stop-color="#17FAFF"></stop><stop offset="1" stop-color="#17FAFF" stop-opacity="0"></stop></linearGradient></defs></svg>
