    <svg width="140" height="30" fill="none" xmlns="http://www.w3.org/2000/svg" id="svg-679808483_4168"><path d="M108.391 83.25c16.94 0 30.143 13.164 30.143 30.011 0 16.014-13.162 29.217-30.143 29.217-16.267 0-30.144-12.489-30.144-29.217 0-16.847 13.203-30.01 30.144-30.01Zm22.389 29.218c0-12.483-9.88-22.309-22.389-22.309-12.381 0-23.186 9.7-23.186 22.309 0 12.483 10.676 23.102 23.186 23.102 12.635 0 22.389-10.747 22.389-23.102Z" stroke="#fff" stroke-width="4.982"></path><path d="m25.858 79.268.552-.604.086-.813 1.583-14.986c2.224-13.098 12.43-22.545 25.635-24.018l18.276-1.583.463-.04.417-.204c45.195-22.11 84.99-34.423 125.34-34.032 40.323.391 81.475 13.473 129.364 42.642l.46.28.535.065c38.049 4.64 70.62 12.292 103.797 28.846a4.899 4.899 0 0 0-2.739 5.865l3.989 13.618a7.78 7.78 0 0 0 7.466 5.594c3.952 0 6.835-2.765 7.596-6.075l4.258 5.259v20.408H417.98a6.228 6.228 0 0 1-6.228-6.229c0-22.754-17.806-40.541-39.901-40.541-22.959 0-39.901 18.649-39.901 40.541 0 1.488-.646 3.099-1.748 4.344-1.1 1.242-2.466 1.916-3.768 1.921l-171.762.716c-1.477.006-2.825-.713-3.873-2.017-1.064-1.324-1.713-3.143-1.713-4.964 0-21.962-17.806-40.541-40.696-40.541-22.13 0-39.901 18.614-39.901 40.541 0 1.759-.77 3.704-2.018 5.105-1.242 1.394-2.662 1.961-3.958 1.747-12.748-2.101-28.53-7.253-37.597-11.948-4.285-6.204-5.712-11.43-5.378-15.924.343-4.62 2.578-8.873 6.32-12.973Zm259.36-47.65c-17.004-9.869-39.737-16.25-59.888-19.333-14.895-2.28-25.376 11.983-21.301 25.9a21.927 21.927 0 0 0 19.782 15.727l50.309 2.898c8.156.47 14.865-3.127 17.592-8.525 1.376-2.724 1.683-5.853.582-8.888-1.093-3.014-3.485-5.696-7.076-7.78ZM122.456 44.821l50.993 4.571c13.249 1.188 23.574-11.276 19.943-24.073-2.526-8.9-11.137-14.756-20.369-13.61-19.762 2.454-31.919 5.198-50.532 14.457-2.392.974-4.202 2.484-5.39 4.456-1.188 1.972-1.651 4.232-1.651 6.537a7.692 7.692 0 0 0 7.006 7.663Z" fill="#1E1E1E" stroke="#fff" stroke-width="4.982"></path><g filter="url(#svg-679808483_4168_a)"><path d="M55.443 45.58c-14.991.607-19.974 12.771-20.591 18.777 1.656 2.171 11.512.905 16.233 0 1.452-1.845 4.358-8.184 4.358-18.778Z" fill="#750000"></path></g><g filter="url(#svg-679808483_4168_b)"><path d="M817.639 75.2H433.854l7.147 22.594 278.055 76.812 98.583-99.405Z" fill="url(#svg-679808483_4168_c)" fill-opacity=".2"></path></g><path d="M371.851 83.25c16.941 0 30.143 13.164 30.143 30.011 0 16.014-13.162 29.217-30.143 29.217-16.267 0-30.143-12.489-30.143-29.217 0-16.808 13.958-30.01 30.143-30.01Zm22.39 29.218c0-12.483-9.88-22.309-22.39-22.309s-22.39 9.826-22.39 22.309c0 12.355 9.755 23.102 22.39 23.102s22.39-10.747 22.39-23.102Z" stroke="#fff" stroke-width="4.982"></path><g filter="url(#svg-679808483_4168_d)"><path d="m434.732 76.003 17.511 21.403H437.12l-5.572-19.025 3.184-2.378Z" fill="#08F8FE"></path></g><defs><filter id="svg-679808483_4168_a" x=".203" y="10.958" width="80.648" height="80.006" filterUnits="userSpaceOnUse" color-interpolation-filters="sRGB"><feFlood flood-opacity="0" result="BackgroundImageFix"></feFlood><feColorMatrix in="SourceAlpha" values="0 0 0 0 0 0 0 0 0 0 0 0 0 0 0 0 0 0 127 0" result="hardAlpha"></feColorMatrix><feOffset></feOffset><feGaussianBlur stdDeviation="12.704"></feGaussianBlur><feComposite in2="hardAlpha" operator="out"></feComposite><feColorMatrix values="0 0 0 0 1 0 0 0 0 0 0 0 0 0 0 0 0 0 0.5 0"></feColorMatrix><feBlend in2="BackgroundImageFix" result="effect1_dropShadow_127_7035"></feBlend><feBlend in="SourceGraphic" in2="effect1_dropShadow_127_7035" result="shape"></feBlend></filter><filter id="svg-679808483_4168_b" x="413.925" y="55.272" width="423.643" height="139.262" filterUnits="userSpaceOnUse" color-interpolation-filters="sRGB"><feFlood flood-opacity="0" result="BackgroundImageFix"></feFlood><feBlend in="SourceGraphic" in2="BackgroundImageFix" result="shape"></feBlend><feGaussianBlur stdDeviation="9.964" result="effect1_foregroundBlur_127_7035"></feGaussianBlur></filter><filter id="svg-679808483_4168_d" x="426.566" y="71.021" width="30.659" height="31.367" filterUnits="userSpaceOnUse" color-interpolation-filters="sRGB"><feFlood flood-opacity="0" result="BackgroundImageFix"></feFlood><feBlend in="SourceGraphic" in2="BackgroundImageFix" result="shape"></feBlend><feGaussianBlur stdDeviation="2.491" result="effect1_foregroundBlur_127_7035"></feGaussianBlur></filter><linearGradient id="svg-679808483_4168_c" x1="433.854" y1="116.751" x2="739.636" y2="158.603" gradientUnits="userSpaceOnUse"><stop stop-color="#17FAFF"></stop><stop offset="1" stop-color="#17FAFF" stop-opacity="0"></stop></linearGradient></defs></svg>