<svg height="47" viewBox="0 0 481 480" fill="none" xmlns="http://www.w3.org/2000/svg" id="svg1257192025_828">
<path d="M140.396 280.02H180.396V320.02H140.396V280.02Z" fill="#272727"></path>
<path d="M380.396 40H220.396C209.788 40 199.614 44.2143 192.112 51.7157C184.611 59.2172 180.396 69.3913 180.396 80V200H100.396C78.3365 200 60.3965 217.94 60.3965 240V420C60.3965 425.304 62.5036 430.391 66.2543 434.142C70.0051 437.893 75.0922 440 80.3965 440H400.396C405.701 440 410.788 437.893 414.539 434.142C418.289 430.391 420.396 425.304 420.396 420V80C420.396 69.3913 416.182 59.2172 408.681 51.7157C401.179 44.2143 391.005 40 380.396 40ZM100.396 400V240H220.396V400H100.396ZM280.396 160H240.396V120H280.396V160ZM360.396 320H320.396V280H360.396V320ZM360.396 240H320.396V200H360.396V240ZM360.396 160H320.396V120H360.396V160Z" fill="#272727"></path>
</svg>