<svg height="51" viewBox="0 0 1565 3199" fill="none" xmlns="http://www.w3.org/2000/svg" id="svg-64061713_8762">
                        <path d="M0 340.217C0 152.32 152.321 0 340.217 0H1224.78C1412.68 0 1565 152.321 1565 340.217V3198.04H0V340.217Z" fill="#272727"></path>
                        <mask id="svg-64061713_8762_path-2-inside-1_129_7087" fill="white">
                        <path d="M1129.52 283.616C1120.21 276.888 1109.56 272.851 1098.92 272.178H476.932C466.289 272.851 456.31 276.888 447.662 282.27C392.448 315.912 311.291 419.529 311.291 457.208V1317.1C311.291 1350.06 359.852 1413.31 375.153 1432.15C396.44 1458.39 423.714 1488.67 447.662 1504.14C452.319 1506.84 456.975 1509.53 462.297 1511.55C466.954 1513.56 471.61 1514.24 476.267 1514.24V1514.24C507.128 1514.24 532.146 1539.26 532.146 1570.12V1683.72C532.146 1696.39 542.421 1706.67 555.096 1706.67V1706.67C567.771 1706.67 578.047 1716.94 578.047 1729.62V2265.12C578.047 2329.04 629.269 2381.53 693.131 2381.53H701.114C764.975 2381.53 816.198 2329.72 816.198 2265.12V1778.2C816.198 1746.1 841.196 1720.07 865.617 1699.23C888.897 1679.37 903.342 1649.74 903.342 1617.18L904.585 1578.74C905.746 1542.78 935.23 1514.24 971.205 1514.24H1098.25C1102.91 1514.24 1108.23 1512.89 1112.22 1511.55C1118.21 1509.53 1123.53 1506.16 1128.85 1502.8C1152.8 1486.65 1178.75 1457.72 1200.03 1432.15C1215.33 1413.31 1263.9 1350.06 1263.9 1317.1V457.208C1264.56 420.202 1184.73 317.931 1129.52 283.616ZM1223.98 1317.1C1223.94 1318.53 1223.65 1320.19 1223.15 1322.06C1207.67 1379.29 1129.52 1350.04 1129.52 1290.75V483.828C1129.52 426.002 1202.97 396.221 1222.37 450.695C1223.36 453.477 1223.92 455.895 1223.98 457.881V1317.1ZM866.427 1512.25C866.645 1513.57 866.733 1514.91 866.689 1516.25L863.429 1616.51C863.429 1646.11 844.137 1672.35 816.198 1681.77C780.941 1693.21 743.023 1673.03 731.714 1636.69C729.718 1629.97 728.388 1623.24 728.388 1615.84L725.062 1514.24V1511.55L724.396 1494.05V1491.36L723.731 1473.87V1471.18L715.083 1173.11L714.418 1152.25L713.753 1130.72L709.762 996.825V996.825C709.762 973.447 737.701 983.217 737.701 1006.59V1117.26C737.701 1123.99 739.031 1130.72 741.027 1136.77C744.353 1144.85 749.01 1152.25 755.662 1158.31C776.949 1178.49 810.211 1178.49 831.498 1158.31C838.15 1152.25 842.807 1144.85 846.133 1136.77C848.794 1130.72 849.459 1123.99 849.459 1117.26V948.38V948.38C849.459 947.525 850.417 947.022 851.113 947.519C868.868 960.191 881.39 977.202 881.39 995.479L877.399 1128.03L876.733 1149.56L876.068 1170.42L867.42 1469.83V1472.52L866.755 1490.01V1492.71L866.169 1508.13C866.116 1509.51 866.203 1510.89 866.427 1512.25V1512.25ZM351.204 457.881C351.384 455.069 352.567 451.352 354.574 446.94C378.399 394.585 447.662 423.022 447.662 480.544V1294.75C447.662 1353.75 374.176 1381.95 353.38 1326.74C352.036 1323.17 351.278 1320.14 351.204 1317.77V457.881ZM1089.61 1404.52C1089.61 1441.33 1059.76 1471.18 1022.95 1471.18H977.315C939.733 1471.18 909.581 1440.12 910.689 1402.55L916.823 1194.72C917.536 1170.57 931.837 1149.38 950.727 1134.32C999.813 1095.21 1029.18 1034.75 1029.74 970.584V797.664C1029.74 682.609 937.269 589.085 823.515 589.085H766.306C652.552 589.085 560.086 682.609 560.086 797.664V970.584C560.086 1036.95 591.165 1098.23 641.958 1137.19C661.485 1152.16 676.291 1173.67 677.022 1198.27L683.109 1403.21C684.225 1440.79 654.072 1471.85 616.484 1471.85H554.231C517.418 1471.85 487.576 1442.01 487.576 1405.19V379.203C487.576 342.39 517.418 312.548 554.231 312.548H1022.95C1059.76 312.548 1089.61 342.39 1089.61 379.203V1404.52ZM796.906 888.498C738.366 888.498 671.178 936.269 671.178 997.497V997.497C672.575 1044.94 622.38 1066.96 608.02 1021.72C602.77 1005.17 599.999 987.709 599.999 969.911V797.664C599.999 704.813 674.505 629.455 766.306 629.455H822.85C914.651 629.455 989.157 704.813 989.157 797.664V970.584C989.157 987.332 986.707 1003.76 982.038 1019.41C969.129 1062.66 921.274 1042.62 922.634 997.497V997.497C922.634 935.596 854.781 888.498 796.906 888.498ZM776.949 2265.12C776.949 2306.84 743.023 2341.16 701.779 2341.16H693.796C652.552 2341.16 618.625 2306.84 618.625 2265.12V1729.62C618.625 1716.94 628.901 1706.67 641.576 1706.67V1706.67C654.251 1706.67 664.526 1696.39 664.526 1683.72V1525.39C664.526 1519.23 669.52 1514.24 675.681 1514.24V1514.24C681.7 1514.24 686.634 1519.01 686.83 1525.03L689.805 1616.51C689.805 1649.1 704.283 1679.03 727.609 1699.09C751.948 1720.03 776.949 1746.1 776.949 1778.2V2265.12Z"></path>
                        </mask>
                        <path d="M1129.52 283.616C1120.21 276.888 1109.56 272.851 1098.92 272.178H476.932C466.289 272.851 456.31 276.888 447.662 282.27C392.448 315.912 311.291 419.529 311.291 457.208V1317.1C311.291 1350.06 359.852 1413.31 375.153 1432.15C396.44 1458.39 423.714 1488.67 447.662 1504.14C452.319 1506.84 456.975 1509.53 462.297 1511.55C466.954 1513.56 471.61 1514.24 476.267 1514.24V1514.24C507.128 1514.24 532.146 1539.26 532.146 1570.12V1683.72C532.146 1696.39 542.421 1706.67 555.096 1706.67V1706.67C567.771 1706.67 578.047 1716.94 578.047 1729.62V2265.12C578.047 2329.04 629.269 2381.53 693.131 2381.53H701.114C764.975 2381.53 816.198 2329.72 816.198 2265.12V1778.2C816.198 1746.1 841.196 1720.07 865.617 1699.23C888.897 1679.37 903.342 1649.74 903.342 1617.18L904.585 1578.74C905.746 1542.78 935.23 1514.24 971.205 1514.24H1098.25C1102.91 1514.24 1108.23 1512.89 1112.22 1511.55C1118.21 1509.53 1123.53 1506.16 1128.85 1502.8C1152.8 1486.65 1178.75 1457.72 1200.03 1432.15C1215.33 1413.31 1263.9 1350.06 1263.9 1317.1V457.208C1264.56 420.202 1184.73 317.931 1129.52 283.616ZM1223.98 1317.1C1223.94 1318.53 1223.65 1320.19 1223.15 1322.06C1207.67 1379.29 1129.52 1350.04 1129.52 1290.75V483.828C1129.52 426.002 1202.97 396.221 1222.37 450.695C1223.36 453.477 1223.92 455.895 1223.98 457.881V1317.1ZM866.427 1512.25C866.645 1513.57 866.733 1514.91 866.689 1516.25L863.429 1616.51C863.429 1646.11 844.137 1672.35 816.198 1681.77C780.941 1693.21 743.023 1673.03 731.714 1636.69C729.718 1629.97 728.388 1623.24 728.388 1615.84L725.062 1514.24V1511.55L724.396 1494.05V1491.36L723.731 1473.87V1471.18L715.083 1173.11L714.418 1152.25L713.753 1130.72L709.762 996.825V996.825C709.762 973.447 737.701 983.217 737.701 1006.59V1117.26C737.701 1123.99 739.031 1130.72 741.027 1136.77C744.353 1144.85 749.01 1152.25 755.662 1158.31C776.949 1178.49 810.211 1178.49 831.498 1158.31C838.15 1152.25 842.807 1144.85 846.133 1136.77C848.794 1130.72 849.459 1123.99 849.459 1117.26V948.38V948.38C849.459 947.525 850.417 947.022 851.113 947.519C868.868 960.191 881.39 977.202 881.39 995.479L877.399 1128.03L876.733 1149.56L876.068 1170.42L867.42 1469.83V1472.52L866.755 1490.01V1492.71L866.169 1508.13C866.116 1509.51 866.203 1510.89 866.427 1512.25V1512.25ZM351.204 457.881C351.384 455.069 352.567 451.352 354.574 446.94C378.399 394.585 447.662 423.022 447.662 480.544V1294.75C447.662 1353.75 374.176 1381.95 353.38 1326.74C352.036 1323.17 351.278 1320.14 351.204 1317.77V457.881ZM1089.61 1404.52C1089.61 1441.33 1059.76 1471.18 1022.95 1471.18H977.315C939.733 1471.18 909.581 1440.12 910.689 1402.55L916.823 1194.72C917.536 1170.57 931.837 1149.38 950.727 1134.32C999.813 1095.21 1029.18 1034.75 1029.74 970.584V797.664C1029.74 682.609 937.269 589.085 823.515 589.085H766.306C652.552 589.085 560.086 682.609 560.086 797.664V970.584C560.086 1036.95 591.165 1098.23 641.958 1137.19C661.485 1152.16 676.291 1173.67 677.022 1198.27L683.109 1403.21C684.225 1440.79 654.072 1471.85 616.484 1471.85H554.231C517.418 1471.85 487.576 1442.01 487.576 1405.19V379.203C487.576 342.39 517.418 312.548 554.231 312.548H1022.95C1059.76 312.548 1089.61 342.39 1089.61 379.203V1404.52ZM796.906 888.498C738.366 888.498 671.178 936.269 671.178 997.497V997.497C672.575 1044.94 622.38 1066.96 608.02 1021.72C602.77 1005.17 599.999 987.709 599.999 969.911V797.664C599.999 704.813 674.505 629.455 766.306 629.455H822.85C914.651 629.455 989.157 704.813 989.157 797.664V970.584C989.157 987.332 986.707 1003.76 982.038 1019.41C969.129 1062.66 921.274 1042.62 922.634 997.497V997.497C922.634 935.596 854.781 888.498 796.906 888.498ZM776.949 2265.12C776.949 2306.84 743.023 2341.16 701.779 2341.16H693.796C652.552 2341.16 618.625 2306.84 618.625 2265.12V1729.62C618.625 1716.94 628.901 1706.67 641.576 1706.67V1706.67C654.251 1706.67 664.526 1696.39 664.526 1683.72V1525.39C664.526 1519.23 669.52 1514.24 675.681 1514.24V1514.24C681.7 1514.24 686.634 1519.01 686.83 1525.03L689.805 1616.51C689.805 1649.1 704.283 1679.03 727.609 1699.09C751.948 1720.03 776.949 1746.1 776.949 1778.2V2265.12Z" fill="#05F9FE" stroke="url(#svg-64061713_8762_paint0_linear_129_7087)" stroke-width="66.6548" mask="url(#svg-64061713_8762_path-2-inside-1_129_7087)"></path>
                        <defs>
                        <linearGradient id="svg-64061713_8762_paint0_linear_129_7087" x1="311.291" y1="272.178" x2="1893.76" y2="986.84" gradientUnits="userSpaceOnUse">
                        <stop stop-color="#0CFFD2"></stop>
                        <stop offset="0.5" stop-color="#17FAFF"></stop>
                        <stop offset="1" stop-color="#00BFFF"></stop>
                        </linearGradient>
                        </defs>
                        </svg>