<svg height="72" viewBox="0 0 481 480" fill="none" xmlns="http://www.w3.org/2000/svg" id="svg-535629840_721">
                        <path fill-rule="evenodd" clip-rule="evenodd" d="M220.396 358C174.751 348.734 140.396 308.38 140.396 260V140C140.396 84.7716 185.168 40 240.396 40C295.624 40 340.396 84.7716 340.396 140V260C340.396 308.38 306.04 348.734 260.396 358V420C260.396 431.046 251.442 440 240.396 440C229.35 440 220.396 431.046 220.396 420V358ZM240.396 80C273.534 80 300.396 106.863 300.396 140V260C300.396 286.124 283.7 308.35 260.396 316.586V220C260.396 208.954 251.442 200 240.396 200C229.35 200 220.396 208.954 220.396 220V316.586C197.092 308.35 180.396 286.124 180.396 260V140C180.396 106.863 207.258 80 240.396 80Z" fill="#272727"></path>
                        </svg>