<svg  height="51" viewBox="0 0 1993 2847" fill="none" xmlns="http://www.w3.org/2000/svg" id="svg-411942668_6659">
                        <path d="M1484 2354.33C1481.51 2343.14 1470.42 2336.09 1459.24 2338.57C1448.05 2341.06 1440.99 2352.14 1443.48 2363.33L1484 2354.33ZM1743.32 1281.16C1762.11 1285.85 1788.83 1308.19 1811.5 1349.31C1833.53 1389.29 1849.58 1443.45 1849.58 1504.98H1891.09C1891.09 1436.4 1873.25 1375.36 1847.85 1329.27C1823.08 1284.33 1788.81 1249.75 1753.39 1240.89L1743.32 1281.16ZM1849.58 1504.98C1849.58 1811.31 1880.21 1976.06 1911.44 2080.18C1926.96 2131.89 1942.71 2168.77 1953.82 2198.4C1965.01 2228.22 1971.56 2250.81 1971.56 2277.51H2013.07C2013.07 2243.22 2004.37 2214.99 1992.68 2183.82C1980.92 2152.46 1966.18 2118.18 1951.2 2068.25C1921.45 1969.07 1891.09 1808.55 1891.09 1504.98H1849.58ZM1971.56 2277.51C1971.56 2396.53 1944.27 2480.75 1904.4 2535.27C1864.81 2589.43 1812.12 2615.36 1757.66 2617.63C1648.25 2622.19 1523.08 2530.19 1484 2354.33L1443.48 2363.33C1485.72 2553.41 1624.83 2664.71 1759.38 2659.1C1826.9 2656.29 1891.11 2623.77 1937.91 2559.77C1984.45 2496.12 2013.07 2402.45 2013.07 2277.51H1971.56Z" fill="#00BFFF"></path>
                        <path d="M162.638 20.9006H1301.11C1379.7 20.9006 1443.41 84.6142 1443.41 163.209V2826.41H20.3298V163.209C20.3298 84.6141 84.0434 20.9006 162.638 20.9006Z" stroke="#17FAFF" stroke-width="40.6595"></path>
                        <rect x="182.976" y="183.544" width="1097.81" height="772.531" rx="60.9893" stroke="#17FAFF" stroke-width="40.6595"></rect>
                        <rect x="1463.74" y="1057.73" width="81.3191" height="162.638" fill="#0CFFD2"></rect>
                        <path d="M1789.02 1220.37C1756.5 1122.78 1612.83 1071.28 1545.07 1057.73V1220.37C1626.39 1220.37 1680.6 1261.02 1707.71 1301.68C1748.37 1315.24 1821.55 1317.95 1789.02 1220.37Z" fill="#0CFFD2"></path>
                        <g filter="url(#svg-411942668_6659_filter0_bdddd_129_7080)">
                        <path d="M249.05 1371.5C249.05 1361.01 256.736 1352.51 266.218 1352.51H300.555C310.037 1352.51 317.724 1361.01 317.724 1371.5V1831.59C317.724 1842.08 310.037 1850.58 300.555 1850.58H266.218C256.736 1850.58 249.05 1842.08 249.05 1831.59V1371.5Z" fill="#05F9FE"></path>
                        <path d="M798.442 1371.5C798.442 1361.01 806.128 1352.51 815.61 1352.51H849.947C859.429 1352.51 867.116 1361.01 867.116 1371.5V1831.59C867.116 1842.08 859.429 1850.58 849.947 1850.58H815.61C806.128 1850.58 798.442 1842.08 798.442 1831.59V1371.5Z" fill="#05F9FE"></path>
                        <path d="M437.744 1352.51H403.407C393.925 1352.51 386.238 1361.01 386.238 1371.5V1831.59C386.238 1842.08 393.925 1850.58 403.407 1850.58H437.904C447.385 1850.58 455.072 1842.08 455.072 1831.59V1542.49C455.072 1479.53 501.192 1428.5 558.083 1428.5C609.15 1428.5 651.538 1469.62 659.682 1523.57C661.244 1533.92 668.781 1542.49 678.262 1542.49H712.599C722.081 1542.49 729.858 1533.96 728.923 1523.52C720.32 1427.5 647.116 1352.51 558.083 1352.51C527.872 1352.51 499.483 1364.7 474.822 1381.42C466.618 1386.99 454.912 1381.42 454.912 1371.5C454.912 1361.01 447.226 1352.51 437.744 1352.51Z" fill="#05F9FE"></path>
                        <path d="M1092.17 1407.85C1041.46 1407.85 1000.35 1445.01 1000.35 1490.86C1000.35 1536.71 1060.1 1565.97 1092.17 1573.87C1124.25 1581.78 1158.43 1584.17 1184.01 1601.55C1221.17 1626.79 1245.21 1666.97 1245.21 1712.23C1245.21 1788.64 1176.69 1850.58 1092.17 1850.58C1049.91 1850.58 1011.65 1835.1 983.957 1810.06C963.132 1791.23 948.281 1767.01 942.195 1739.9C941.546 1737.01 940.997 1734.09 940.551 1731.14C938.987 1720.79 946.82 1712.23 956.302 1712.23H983.18C992.662 1712.23 1000.12 1720.89 1002.7 1730.99C1003.48 1734.03 1004.44 1737 1005.57 1739.9C1010.18 1751.69 1017.66 1762.26 1027.24 1770.93C1043.86 1785.95 1066.81 1795.24 1092.17 1795.24C1142.88 1795.24 1183.99 1758.08 1183.99 1712.23C1183.99 1666.38 1140.5 1637.12 1092.17 1629.22C1043.84 1621.31 1025.91 1618.92 1000.33 1601.55C963.171 1576.3 939.133 1536.12 939.133 1490.86C939.133 1414.45 1007.65 1352.51 1092.17 1352.51C1134.43 1352.51 1172.69 1367.99 1200.38 1393.03C1221.21 1411.86 1236.06 1436.08 1242.15 1463.19C1242.8 1466.08 1243.34 1469 1243.79 1471.95C1245.36 1482.3 1237.52 1490.86 1228.04 1490.86H1201.16C1191.68 1490.86 1184.22 1482.2 1181.64 1472.1C1180.86 1469.06 1179.9 1466.09 1178.77 1463.19C1174.16 1451.4 1166.68 1440.83 1157.1 1432.16C1140.48 1417.14 1117.53 1407.85 1092.17 1407.85Z" fill="#05F9FE"></path>
                        <path d="M427.745 1408.38C437.15 1418.09 450.152 1423.75 463.556 1424.74C448.498 1438.85 436.314 1456.2 427.745 1475.5V1408.38Z" stroke="url(#svg-411942668_6659_paint0_linear_129_7080)" stroke-width="83.0132"></path>
                        </g>
                        <defs>
                        <filter id="svg-411942668_6659_filter0_bdddd_129_7080" x="-3901.61" y="-2798.16" width="9297.48" height="11870.9" filterUnits="userSpaceOnUse" color-interpolation-filters="sRGB">
                        <feFlood flood-opacity="0" result="BackgroundImageFix"></feFlood>
                        <feGaussianBlur in="BackgroundImageFix" stdDeviation="2075.33"></feGaussianBlur>
                        <feComposite in2="SourceAlpha" operator="in" result="effect1_backgroundBlur_129_7080"></feComposite>
                        <feColorMatrix in="SourceAlpha" type="matrix" values="0 0 0 0 0 0 0 0 0 0 0 0 0 0 0 0 0 0 127 0" result="hardAlpha"></feColorMatrix>
                        <feOffset dy="332.053"></feOffset>
                        <feGaussianBlur stdDeviation="373.56"></feGaussianBlur>
                        <feColorMatrix type="matrix" values="0 0 0 0 0.0313726 0 0 0 0 0.972549 0 0 0 0 0.996078 0 0 0 0.1 0"></feColorMatrix>
                        <feBlend mode="normal" in2="effect1_backgroundBlur_129_7080" result="effect2_dropShadow_129_7080"></feBlend>
                        <feColorMatrix in="SourceAlpha" type="matrix" values="0 0 0 0 0 0 0 0 0 0 0 0 0 0 0 0 0 0 127 0" result="hardAlpha"></feColorMatrix>
                        <feOffset dy="1328.21"></feOffset>
                        <feGaussianBlur stdDeviation="664.106"></feGaussianBlur>
                        <feColorMatrix type="matrix" values="0 0 0 0 0.0313726 0 0 0 0 0.972549 0 0 0 0 0.996078 0 0 0 0.09 0"></feColorMatrix>
                        <feBlend mode="normal" in2="effect2_dropShadow_129_7080" result="effect3_dropShadow_129_7080"></feBlend>
                        <feColorMatrix in="SourceAlpha" type="matrix" values="0 0 0 0 0 0 0 0 0 0 0 0 0 0 0 0 0 0 127 0" result="hardAlpha"></feColorMatrix>
                        <feOffset dy="2905.46"></feOffset>
                        <feGaussianBlur stdDeviation="871.639"></feGaussianBlur>
                        <feColorMatrix type="matrix" values="0 0 0 0 0.0313726 0 0 0 0 0.972549 0 0 0 0 0.996078 0 0 0 0.05 0"></feColorMatrix>
                        <feBlend mode="normal" in2="effect3_dropShadow_129_7080" result="effect4_dropShadow_129_7080"></feBlend>
                        <feColorMatrix in="SourceAlpha" type="matrix" values="0 0 0 0 0 0 0 0 0 0 0 0 0 0 0 0 0 0 127 0" result="hardAlpha"></feColorMatrix>
                        <feOffset dy="5146.82"></feOffset>
                        <feGaussianBlur stdDeviation="1037.67"></feGaussianBlur>
                        <feColorMatrix type="matrix" values="0 0 0 0 0.0313726 0 0 0 0 0.972549 0 0 0 0 0.996078 0 0 0 0.01 0"></feColorMatrix>
                        <feBlend mode="normal" in2="effect4_dropShadow_129_7080" result="effect5_dropShadow_129_7080"></feBlend>
                        <feBlend mode="normal" in="SourceGraphic" in2="effect5_dropShadow_129_7080" result="shape"></feBlend>
                        </filter>
                        <linearGradient id="svg-411942668_6659_paint0_linear_129_7080" x1="249.05" y1="1352.51" x2="1253.34" y2="1369.47" gradientUnits="userSpaceOnUse">
                        <stop stop-color="white" stop-opacity="0.4"></stop>
                        <stop offset="1" stop-color="white" stop-opacity="0.2"></stop>
                        </linearGradient>
                        </defs>
                        </svg>