<svg height="78.33" viewBox="0 0 481 480" fill="none" xmlns="http://www.w3.org/2000/svg" id="svg45791615_736">
<path d="M340.396 40H140.396C129.787 40 119.613 44.2143 112.112 51.7157C104.61 59.2172 100.396 69.3913 100.396 80V420C100.396 425.304 102.503 430.391 106.254 434.142C110.005 437.893 115.092 440 120.396 440H360.396C365.7 440 370.787 437.893 374.538 434.142C378.289 430.391 380.396 425.304 380.396 420V80C380.396 69.3913 376.182 59.2172 368.68 51.7157C361.179 44.2143 351.005 40 340.396 40ZM220.396 320H160.396V280H220.396V320ZM220.396 240H160.396V200H220.396V240ZM220.396 160H160.396V120H220.396V160ZM320.396 320H260.396V280H320.396V320ZM320.396 240H260.396V200H320.396V240ZM320.396 160H260.396V120H320.396V160Z" fill="#272727"></path>
</svg>