<svg  height="92.5" viewBox="0 0 481 480" fill="none" xmlns="http://www.w3.org/2000/svg" id="svg1939915004_933">
<path d="M260.397 305.157V427.157C260.397 432.462 258.289 437.549 254.539 441.299C250.788 445.05 245.701 447.157 240.397 447.157C235.092 447.157 230.005 445.05 226.254 441.299C222.504 437.549 220.397 432.462 220.397 427.157V305.157C197.881 309.784 174.458 306.512 154.072 295.893C133.686 285.274 117.58 267.956 108.466 246.854C99.3517 225.752 97.7856 202.155 104.031 180.033C110.277 157.912 123.952 138.617 142.757 125.397C147.709 103.195 160.081 83.3443 177.831 69.1177C195.581 54.8912 217.649 47.1387 240.397 47.1387C263.144 47.1387 285.213 54.8912 302.962 69.1177C320.712 83.3443 333.084 103.195 338.037 125.397C356.841 138.617 370.517 157.912 376.762 180.033C383.007 202.155 381.441 225.752 372.327 246.854C363.213 267.956 347.107 285.274 326.721 295.893C306.335 306.512 282.912 309.784 260.397 305.157Z" fill="#272727"></path>
</svg>