<svg width="240"  height="50" fill="none" xmlns="http://www.w3.org/2000/svg" id="svg-868568958_15677"><path d="M4663.32 990.78c0 .007.13-.567.32-2.102.17-1.421.35-3.303.53-5.663.37-4.714.71-11.015 1.04-18.733.64-15.417 1.19-36.161 1.62-60.505.88-48.669 1.32-111.482 1.34-174.321.01-62.84-.42-125.645-1.29-174.302-.43-24.338-.98-45.072-1.63-60.478-.33-7.712-.68-14.003-1.05-18.707-.18-2.356-.37-4.23-.54-5.641-.17-1.321-.29-1.913-.32-2.028v-.021c-.99-3.503-3.46-5.427-8.52-6.761-2.41-.634-4.78-.953-7.31-1.294l-.55-.076c-1.16-.157-2.83-.384-4.31-.742-.75-.181-1.94-.504-3.2-1.099-1.09-.515-3.57-1.832-5.36-4.684-1.26-2.012-1.87-4.134-2.18-5.405-.38-1.508-.66-3.151-.88-4.801-.45-3.312-.77-7.432-.99-12.103-.45-9.385-.58-21.858-.5-36.342.16-29.005 1.15-66.796 2.19-105.574l.12-4.137c1-37.532 2.03-75.767 2.38-107.965.37-33.764-.04-59.788-1.76-71.62-3.07-20.968-18.59-44.422-35.66-63.689-8.33-9.409-16.63-17.369-23.16-22.99-3.27-2.819-6-4.963-7.99-6.376a33.76 33.76 0 0 0-1.42-.967c-.33-.039-.74-.077-1.2-.105a23.77 23.77 0 0 0-1.67-.041c-6.81 22.914-8.82 37.42-8.39 46.79.42 9.308 3.18 12.883 5.85 15.22 1.71 1.49 3.82 2.817 6.75 4.471.51.287 1.06.594 1.65.918 2.45 1.363 5.47 3.04 8.26 4.932 7.74 5.237 15 12.861 18.26 26.44.49 2.046.79 5.104 1.03 8.034.26 3.287.52 7.524.77 12.527.5 10.021.98 23.389 1.42 38.945.89 31.127 1.6 71.213 1.91 111.221.31 39.993.22 80.003-.5 110.947-.37 15.451-.89 28.78-1.62 38.764-.37 4.971-.79 9.301-1.31 12.725-.25 1.704-.56 3.369-.94 4.865-.31 1.212-.91 3.373-2.17 5.39-1.85 2.954-4.45 4.25-5.39 4.686-1.18.55-2.29.86-2.95 1.029-1.17.299-2.57.547-3.58.725l-.32.057c-2.45.436-4.83.897-7.2 1.752-4.27 1.542-8.06 4.109-9.77 10.569-.01.036-.13.623-.31 2.097-.16 1.403-.34 3.259-.51 5.583-.34 4.642-.67 10.842-.97 18.433-.61 15.166-1.12 35.567-1.53 59.504-.82 47.857-1.23 109.616-1.23 171.403 0 61.788.41 123.546 1.23 171.403.41 23.938.92 44.338 1.53 59.504.3 7.591.63 13.791.97 18.433.17 2.324.35 4.18.51 5.583.17 1.413.29 2.011.31 2.09v.007c1.72 6.475 5.49 9.036 9.74 10.572 2.36.852 4.74 1.313 7.19 1.748l.33.06c1.01.177 2.4.423 3.56.718.67.168 1.76.467 2.93 1.007.93.42 3.45 1.66 5.31 4.48l2.63 4-1.01 4.68c-6.44 29.76-1.49 49.47 7.69 63.41 9.46 14.38 24.43 24.21 40.89 32.05 8.07 3.84 16.19 7.07 23.97 10.15l.31.13.05.02c7.62 3.03 15.29 6.07 21.47 9.34 5.78 3.06 12.74 7.53 16.19 14.6 4.21 8.63 1.68 17.23-3.33 24.25l-.01.01c-2.23 3.12-5.17 5.91-9 7.57-3.95 1.72-7.96 1.84-11.52 1.05-6.43-1.45-11.42-5.88-14.5-9.06-3.38-3.5-6.26-7.44-8.2-10.19-.27-.37-.5-.7-.72-1.01-.51-.05-1.11-.11-1.8-.17-3.23-.26-7.59-.48-13.03-.65-10.85-.33-25.48-.44-42.82-.4-34.66.08-79.71.78-126.1 1.54-3.94.06-7.89.13-11.84.19-81.36 1.34-165.21 2.71-200.9.95-4.58 7.1-12.25 11.35-19.71 13.85-10.62 3.55-24.02 4.78-37.8 4.94-17.76.21-37.96-1.37-56.79-3.17 1.13.68 2.3 1.39 3.51 2.12 21.16 12.8 51.12 32.23 71.42 63.29 24.15 36.96 31.31 71.94 34.86 97.88.72 5.24 1.26 9.84 1.75 13.95.77 6.51 1.39 11.77 2.32 16.31.53 2.6 1.05 4.31 1.49 5.41h342.58l1.8.62c5.91 2.03 9.81 6.34 12.3 10.67 2.44 4.24 3.93 9.16 4.9 13.96 1.93 9.61 2.3 21.34 2.16 32.65-.09 8.18-.47 16.71-.81 24.52-.13 3.03-.26 5.96-.36 8.71-.27 7.12-.37 12.81-.2 16.96 2.31-.57 4.71-1.06 7.11-1.48 6.09-1.06 13.16-1.88 20.69-2.56 10.64-.97 22.72-1.7 34.79-2.43 4.9-.3 9.79-.6 14.59-.91 16.91-1.1 32.62-2.39 44.4-4.5 5.94-1.06 10.27-2.23 13.05-3.4.12-.05.24-.1.35-.15v-79.33l3.29-3.33 6.55-6.62 3.35-3.38h163.85c2.71-72.88 27.88-142.83 91.91-187.35 8.11-5.63 26.64-14.71 42.64-22.08 8.22-3.79 16.14-7.3 22.29-9.91 3.06-1.3 5.75-2.41 7.85-3.22 1.03-.4 2.01-.77 2.84-1.05l.03-.01c.54-.19 1.84-.63 3.19-.85 132.17-21.41 264.77 77.39 256.08 221.45 9.03 3.01 16.36 4.7 22.29 5.32 7.58.8 12.13-.21 14.93-1.64 5.01-2.55 9.19-9.22 10.65-26.71 1.23-14.79.28-33.64-.88-56.58-.17-3.33-.34-6.74-.51-10.24-1.24-25.42-2.32-54.6-.51-85.96l-20.79-14.01-27.91-18.81 33.6-2c3.14-.19 7.64-1.99 12.11-4.71 1.67-1.02 3.12-2.03 4.22-2.87.05-.49.11-1.06.16-1.74.23-2.92.42-6.87.56-11.81.28-9.85.37-23.13.32-38.91-.07-23.27-.41-51.68-.78-82.05-.13-10.79-.26-21.821-.38-32.957-.48-42.427-.83-86.304-.43-123.403.38-35.215 1.44-65.231 3.91-81.966-8.57-43.017-17.91-85.813-28.61-128.263-.5-.137-1.05-.308-1.61-.525-1.46-.565-3.31-1.536-5-3.24a13.76 13.76 0 0 1-3.54-6.242c-2.99-11.397-6.05-25.616-9.34-40.895-.94-4.361-1.9-8.809-2.88-13.302-4.46-20.446-9.45-42.175-15.43-62.426-6.02-20.35-12.87-38.611-20.87-52.349-7.62-13.091-15.23-20.283-22.47-22.834-50.85 3.353-179.97 1.339-302.57-.573l-6.92-.108c-63.4-.988-124.82-1.928-172.83-2.08-24-.077-44.57.044-60.3.45-16.18.417-26.05 1.125-29.66 1.915.01-.001 0 .001-.02.006-.09.03-.53.167-1.34.524-.95.416-2.16 1.026-3.57 1.847-2.83 1.647-6.18 3.992-9.48 6.976-6.69 6.06-12.36 14.01-14 23.362-1.02 5.783-1.79 17.314-2.25 34.082-.47 16.509-.62 37.394-.57 61.428.11 48.06 1.07 108.382 2.1 170.841.07 4.313.14 8.638.22 12.971 2 120.764 4.1 247.301.65 305.211l-.14 2.36-1.07 2.11c-3.58 7.05-10.82 7.52-13.42 7.46-3.21-.08-6.44-.95-9.07-1.84-5.49-1.85-11.89-5.02-17.82-8.44-6.01-3.45-12.08-7.46-16.92-11.27-2.41-1.89-4.72-3.88-6.61-5.87-1.53-1.59-4.16-4.56-5.29-8.38v-.02l-.01-.02c-3.13-10.81-3.89-20.32-.43-28.24 3.68-8.44 10.81-12.11 15.91-14.115 1.92-.751 4.03-1.439 5.74-1.997.48-.156.93-.303 1.33-.437 2.11-.702 3.62-1.271 4.84-1.895 1.97-1.005 2.67-1.812 3.13-3.516Zm0 0v-.001l10.97 2.968-10.97-2.972v.005ZM4563.29 11.093c0 .004.06.035.17.083a1.33 1.33 0 0 0-.17-.083Zm826.47 639.526-.01-.002c.02.004.03.004.01.002Zm-628.99 813.261s-.02.01-.05.04c.04-.03.05-.04.05-.04Zm556.14-979.069-5.08 5.133c2.1 3.638 3.96 7.971 5.63 12.492 3.62 9.806 6.95 22.212 9.88 34.513 2.93 12.318 5.54 24.929 7.7 35.314l.03.146c1.43 6.915 2.61 12.542 3.53 16.547.47.129.98.289 1.5.488 1.46.555 3.26 1.494 4.93 3.115a13.882 13.882 0 0 1 3.59 5.926l.02.037.01.037c4.68 15.678 9.39 38.55 13.82 61.261 1.08 5.536 2.15 11.069 3.2 16.514 2.86 14.836 5.59 29.02 8.16 40.831 1.67.927 3.54 2.24 5.28 4.113 7.19 7.759 7.12 19.011 2 32.2l-4.76 12.254-11.45-6.457c-2.54-1.43-6.53-2.226-13.12-1.971-5.12.198-10.59.937-16.93 1.794-1.9.257-3.88.524-5.94.791-16.77 2.158-38.62 4.2-58.05-7.37l-4.63-2.754v8.727l-11.26.132c-60.38.706-120.74 1.442-181.06 2.207l-11.44.145-.09-11.437c-.7-84.405-1.43-168.811-2.19-253.216l-.04-4.74 3.34-3.37 6.55-6.622 3.34-3.379h175v11.211l8-7.921.09.088 8.62 8.714c.27-1.054.81-2.91 1.94-4.72l.03-.047.03-.046c1.85-2.889 4.4-4.369 5.76-5.048 1.56-.779 3.13-1.275 4.41-1.608 2.59-.672 5.43-1.033 7.94-1.22 2.57-.192 5.2-.232 7.51-.13 1.82.081 4.92.289 7.53 1.241l16.67 6.085Zm-50.41 206.603c-.07-5.609-.16-11.495-.27-17.588v57.239c.4-9.224.46-22.898.27-39.651Z" fill="#1E1E1E" stroke="#fff" stroke-width="22.773"></path><path d="m49.676 1133.89.04.08.04.08c.82 1.62 1.2 3.25 1.371 4.04.223 1.01.401 2.11.55 3.2.301 2.19.561 4.9.793 7.97.465 6.17.857 14.35 1.177 23.79.642 18.9 1.008 43.27 1.063 67.58.055 24.31-.202 48.67-.817 67.54-.307 9.42-.706 17.6-1.214 23.78-.253 3.06-.547 5.82-.902 8.05-.08.51-.17 1.03-.27 1.55-.12.61-.255 1.23-.41 1.82-.216.83-.729 2.7-1.884 4.52l-.01.02-.011.02c-3.331 5.22-8.585 6.84-11.773 7.37-3.252.55-6.523.37-8.759.18-1.63-.13-2.55-.23-3.309-.32-.041 0-.082-.01-.123-.01-.352.58-.764 1.32-1.22 2.26-1.523 3.14-3.046 7.41-4.263 12.47-2.455 10.2-3.364 22.33-1.398 32.97 1.962 10.62 6.471 18.41 13.651 22.64 6.757 3.99 18.204 6.21 37.302 1.29.407-1.6.837-3.84 1.243-6.81 1.087-7.93 1.768-19.19 2.122-32.99.704-27.51.08-63.6-.74-99.99-.158-7-.323-14.01-.487-20.97-.684-29.07-1.346-57.22-1.37-79.77-.015-13.96.212-26.06.86-35.04.322-4.45.77-8.5 1.439-11.76.33-1.61.789-3.41 1.482-5.11.536-1.31 1.92-4.42 5.098-6.63 3.918-2.73 10.778-5.79 17.948-1.96 5.924 3.17 8.103 9.23 9.029 12.52 2.08 7.39 2.24 17.82 2.112 26.96-.065 4.67-.204 9.01-.336 13.12-.159 4.96-.308 9.58-.302 14.02.002 1.21.018 2.31.045 3.31 62.532-2.56 205.38-.68 343.887 1.14l20.509.27c76.304 1 150.161 1.92 207.525 2 28.688.05 53.17-.11 71.733-.57 18.298-.46 29.642-1.19 33.957-2 .187-.1.502-.27.963-.54 1.254-.75 2.914-1.84 5.151-3.35.859-.58 1.785-1.21 2.774-1.89 3.992-2.72 9.006-6.14 14.773-9.77 14.482-9.12 34.312-19.98 58.738-27.1 48.9-14.26 114.58-13.04 190.967 42.51 85.05 5.74 123.54-.05 144.14-7.8 10.11-3.81 16.2-8.2 21.92-12.69.67-.52 1.34-1.06 2.04-1.62 5.23-4.17 11.4-9.09 19.91-12.54h.01c69.48-28.08 158.77-16.94 218.05 34.4H3115.9c7.82-4.16 12.36-8.95 15.13-13.6 3.09-5.19 4.44-10.95 4.9-17 .36-4.81.15-9.18-.06-13.6-.07-1.37-.14-2.75-.19-4.15-.09-2.62-.15-5.87.35-8.86.45-2.74 1.8-8.11 6.99-11.44l2.81-1.81h557.97l3.34 3.38 9.76 9.86h241.23c2.56-1.51 3.52-2.85 3.89-3.43.29-.44.46-.83.72-1.45.03-.07.42-1.08.86-1.9.22-.43.82-1.54 1.87-2.69 1.07-1.16 3.55-3.36 7.51-3.72l.28-.03.27-.01c24.2-1.05 56.51-.37 89.49.33 21.37.45 43.03.91 62.95.91 25.79-.01 48.77-.77 65.68-3.12 8.51-1.18 14.83-2.68 19-4.37 1.25-.5 2.12-.95 2.71-1.3-4.16-73.13-1.56-298.781.99-520.059l.33-28.197c1.34-117.437 2.6-231.964 2.76-320.267.08-44.159-.12-81.686-.72-109.707-.29-14.019-.69-25.572-1.19-34.347-.53-9.135-1.13-14.339-1.61-16.31-.87-3.563-2.17-4.614-4.24-5.752-1.32-.727-2.74-1.317-4.86-2.205-.34-.14-.69-.287-1.06-.444-1.72-.723-3.8-1.614-5.99-2.772L24.92 82.476a77.471 77.471 0 0 0-1.883 2.652 81.614 81.614 0 0 0-2.703 4.23c-.196.33-.352.605-.472.822-.458 2.29-1.016 7.183-1.51 15.235-.532 8.68-.948 20.12-1.259 34.016-.62 27.775-.81 64.988-.707 108.789.21 87.587 1.597 201.199 3.066 317.69l.254 20.137c2.822 223.342 5.725 453.163.865 524.783 4.586 10.11 9.406 13.14 12.1 14.33 1.718.76 3.3 1.1 5.208 1.45l.233.05c.785.14 2.263.41 3.555.81l.036.02c1.03.31 5.51 1.7 7.973 6.4Z" fill="#1E1E1E" stroke="#fff" stroke-width="22.773"></path><g filter="url(#svg-868568958_15677_a)"><ellipse cx="50.743" cy="1238.73" rx="27.421" ry="62.551" fill="#EB0000"></ellipse></g><path d="M4703.21 106.62c.66 101.666 1.35 203.357 2.06 305.075 47.06-1.38 94.23-.213 141.01.945 8.71.216 17.4.431 26.08.63 54.56 1.247 108.58 1.835 162.14-2.177-34.52-102.22-118.45-202.337-210.89-255.243l-.01-.005v-.004c-7.31-4.196-36.06-17.461-64.76-29.759-14.19-6.086-28.07-11.803-38.89-15.904-5.43-2.058-9.94-3.651-13.26-4.675-.47-.145-.91-.275-1.31-.389-.21.152-.42.306-.64.459-.47.33-.99.685-1.53 1.047Zm-866.7 1195.14c.54 1.58 1.07 3.16 1.6 4.72 2.89-10.25 6.89-22.59 12.89-35.82 15.32-33.77 43.51-72.91 98.88-100.25-5.82.2-12.73.5-20.53.85-5.49.25-11.41.53-17.67.82-18.73.88-40.46 1.9-62.74 2.71-29.7 1.08-60.59 1.81-86.96 1.35-8.76-.16-17.21-.44-25.07-.91 19.31 10.94 44.87 27.35 64.95 54.05h.01l.01.01c14.18 18.93 22.28 37.58 28.71 55.36 2.15 5.94 4.06 11.6 5.92 17.11ZM3522 1176.24l.02-.01.02-.02c.53-.38 1.1-.74 1.69-1.08-.93.02-1.86.03-2.78.04-7.67.1-16.04-.1-24.13-.3-5.75-.14-11.36-.27-16.45-.29-24.41-.1-44.59 2.2-60.09 13.84.19 8.98-.18 18.54-.53 27.64-.05 1.42-.11 2.82-.16 4.2-.47 12.68-.72 24.1.39 33.35 1.18 9.78 3.56 13.87 5.42 15.3.95.74 4.25 2.6 14.04-.74.65-1.03 1.5-2.47 2.7-4.55l.3-.51c2.9-5.02 7.06-12.2 13.05-20.77 12.44-17.82 32.57-41.33 66.51-66.1Z" fill="#1E1E1E" stroke="#fff" stroke-width="22.773"></path><path d="M5164.6 1187.98v-.01c-149.53-8.06-240.83 165.09-149.61 283.38 68.8 89.2 215.12 84.49 278.3-8.28l.01-.01c77.87-114.13-6.32-268.49-128.7-275.08Zm-1104.37-.02h.01c-39.46-3.03-91.95 12.74-122.92 37.23h-.01l-.01.01c-1.54 1.22-5 4.65-9.89 9.97-4.67 5.1-10.13 11.34-15.46 17.67-5.33 6.32-10.47 12.65-14.53 17.89-2.03 2.62-3.74 4.91-5.05 6.76-.65.93-1.17 1.7-1.57 2.31-.19.31-.34.55-.45.74l-.06.09c-.03.05-.05.1-.07.13-.02.03-.03.05-.03.06l-.01.01c-28.8 57.54-23.04 129.01 12.43 182.34 46.1 69.25 131.09 87.38 201.54 61.58 69.72-25.53 124.56-94.05 109.38-198.97v-.01c-4.7-32.59-25.89-65.84-55.29-91.86-29.38-26-65.46-43.45-98.01-45.95Z" stroke="#fff" stroke-width="22.773"></path><path d="M3782.76 1450.81c60.87-112.41-16.52-250.93-131.74-262.49l-5.23-.35c-109.7-7.27-199.57 90.99-186.48 200.87v.02c1.95 16.53 11.38 39.56 24.66 61.75 13.25 22.15 29.2 41.57 42.76 51.55 79.63 58.53 208.15 37.07 256.03-51.35Zm-2364.77-237.07c-21.99-13.58-45.49-22.97-65.34-25.47l-3.79-.31c-37.71-3.07-83.32 8.24-115.05 28.99-59.43 38.94-85.61 118.43-71.41 188.64 5.73 28.37 25.01 58.82 51.04 83.48 26.04 24.66 57.36 42.15 85.64 46.22 150.63 21.71 259.75-141.1 174.31-271.01-11.66-17.73-32.02-36.1-55.4-50.54Zm-409 0c-21.991-13.58-45.486-22.97-65.342-25.47l-3.788-.31c-37.712-3.07-83.316 8.24-115.049 28.99-59.431 38.94-85.606 118.43-71.415 188.64 5.73 28.37 25.017 58.82 51.045 83.48 26.035 24.66 57.358 42.15 85.639 46.22h.004c150.626 21.71 259.746-141.1 174.306-271.01v-.01c-11.67-17.73-32.02-36.09-55.4-50.53Zm4077.8 126.8c-8.7 30.24 1.26 55.24 19.83 70.4 18.84 15.37 47.37 21.24 76.59 10.5 13.63-5.02 24.77-19.58 30.18-38.68 5.39-19 4.13-39.32-3.45-52.99-1.31-2.35-4.57-5.97-10.01-10.45-5.19-4.29-11.48-8.66-17.79-12.64-6.27-3.97-12.37-7.43-17.06-9.9-2.36-1.24-4.28-2.19-5.64-2.82-.38-.17-.68-.31-.92-.41l-.86-.1c-4.04-.14-9.6.78-16.36 3.1-7.63 2.62-15.92 6.73-23.8 11.79-7.88 5.06-15.07 10.87-20.6 16.74-5.66 6.02-8.93 11.38-10.11 15.46Zm-1035.08-46.49c-.56-.23-1-.41-1.33-.52-4.42-.41-10.76.48-18.35 3.16-7.83 2.76-16.24 7.15-24.07 12.83-16.06 11.63-27.61 27.02-29.25 42.25l-.01.02c-3.24 29.75 6.21 48.73 19.85 59.9 14.1 11.54 34.28 16.06 54.31 13.27 20.02-2.79 38.32-12.67 48.91-27.84 10.27-14.71 14.41-35.98 3.41-64.44-1.21-3.11-4.41-7.33-9.96-12.25-5.35-4.75-12-9.39-18.78-13.52-6.74-4.12-13.36-7.6-18.5-10.06-2.57-1.23-4.7-2.17-6.23-2.8Zm-1.79-.69-.11-.03.11.03Z" fill="#1E1E1E" stroke="#fff" stroke-width="22.773"></path><path d="M3651.41 1298.89c-6.57-3.38-11.49-4.9-14.05-5.21l-.41-.04c-18.61-1.55-43.89 11.78-59.2 34.37-14.68 21.65-18.8 49.79 1.69 77.48 14.4 19.47 45.26 26.72 73.37 18.04 27.02-8.36 48.61-30.66 45.8-67.71-1.15-15.3-11.84-30.51-26.19-42.72-6.99-5.95-14.4-10.8-21.01-14.21Z" fill="#1E1E1E" stroke="#fff" stroke-width="22.773"></path><path d="M1407.11 1356c0-28.42-21.48-66.61-69.06-66.61-48.16 0-70.66 35.35-70.66 66.61 0 30.85 26.13 66.61 70.66 66.61 43.95 0 69.06-38.61 69.06-66.61Z" stroke="#fff" stroke-width="22.773"></path><path d="M861.664 1394.24h.003c13.871 30.01 51.489 39.59 83.578 27.68 15.594-5.79 28.564-16.36 35.584-30.81 6.933-14.26 8.724-33.68-.503-58.59l-.004-.02c-1.046-2.83-3.863-6.84-8.819-11.65-4.774-4.64-10.746-9.27-16.901-13.46-6.128-4.17-12.209-7.75-17.06-10.32-2.43-1.28-4.462-2.27-5.971-2.92-.852-.38-1.353-.56-1.57-.64-17.277-2.36-41.413 7.5-58.018 26.8-16.126 18.73-23.783 44.84-10.319 73.93Z" fill="#1E1E1E" stroke="#fff" stroke-width="22.773"></path><g filter="url(#svg-868568958_15677_b)"><path d="M7137.59 1024.81H5383.32l32.67 103.27 1270.98 351.1 450.62-454.37Z" fill="url(#svg-868568958_15677_c)" fill-opacity=".2"></path></g><g filter="url(#svg-868568958_15677_d)"><ellipse cx="5389.18" cy="1075.37" rx="15.871" ry="62.551" fill="#08F8FE"></ellipse></g><defs><filter id="svg-868568958_15677_a" x=".549" y="1153.4" width="100.388" height="170.648" filterUnits="userSpaceOnUse" color-interpolation-filters="sRGB"><feFlood flood-opacity="0" result="BackgroundImageFix"></feFlood><feBlend in="SourceGraphic" in2="BackgroundImageFix" result="shape"></feBlend><feGaussianBlur stdDeviation="11.387" result="effect1_foregroundBlur_127_7052"></feGaussianBlur></filter><filter id="svg-868568958_15677_b" x="5292.22" y="933.715" width="1936.46" height="636.562" filterUnits="userSpaceOnUse" color-interpolation-filters="sRGB"><feFlood flood-opacity="0" result="BackgroundImageFix"></feFlood><feBlend in="SourceGraphic" in2="BackgroundImageFix" result="shape"></feBlend><feGaussianBlur stdDeviation="45.546" result="effect1_foregroundBlur_127_7052"></feGaussianBlur></filter><filter id="svg-868568958_15677_d" x="5350.54" y="990.049" width="77.287" height="170.648" filterUnits="userSpaceOnUse" color-interpolation-filters="sRGB"><feFlood flood-opacity="0" result="BackgroundImageFix"></feFlood><feBlend in="SourceGraphic" in2="BackgroundImageFix" result="shape"></feBlend><feGaussianBlur stdDeviation="11.387" result="effect1_foregroundBlur_127_7052"></feGaussianBlur></filter><linearGradient id="svg-868568958_15677_c" x1="5383.32" y1="1214.73" x2="6781.04" y2="1406.04" gradientUnits="userSpaceOnUse"><stop stop-color="#17FAFF"></stop><stop offset="1" stop-color="#17FAFF" stop-opacity="0"></stop></linearGradient></defs></svg>